<?xml version="1.0" encoding="iso-8859-1"?>
<!-- Generator: Adobe Illustrator 16.0.0, SVG Export Plug-In . SVG Version: 6.00 Build 0)  -->
<!DOCTYPE svg PUBLIC "-//W3C//DTD SVG 1.1//EN" "http://www.w3.org/Graphics/SVG/1.1/DTD/svg11.dtd">
<svg xmlns="http://www.w3.org/2000/svg" xmlns:xlink="http://www.w3.org/1999/xlink" version="1.1" id="Capa_1" x="0px" y="0px" width="120px" height="120px" viewBox="0 0 49.999 49.999" style="enable-background:new 0 0 49.999 49.999;" xml:space="preserve">
<g>
	<g>
		<path d="M29.62,37.764v1.199h-9.238v-1.199H0c0,1.709,0.994,2.152,2.215,2.152h45.569c1.221,0,2.215-0.443,2.215-2.152H29.62z" fill="#db9f3c"/>
		<path d="M42.895,10.083H7.106c-1.671,0-3.031,1.36-3.031,3.031v20.779c0,1.67,1.36,3.031,3.031,3.031h35.787    c1.672,0,3.031-1.361,3.031-3.031V13.115C45.924,11.442,44.564,10.083,42.895,10.083z M28.698,29.643l-1.345,0.775l-2.849-4.934    l-1.81,2.375L21.19,18.19l7.623,6.138l-2.963,0.38L28.698,29.643z" fill="#db9f3c"/>
	</g>
</g>
<g>
</g>
<g>
</g>
<g>
</g>
<g>
</g>
<g>
</g>
<g>
</g>
<g>
</g>
<g>
</g>
<g>
</g>
<g>
</g>
<g>
</g>
<g>
</g>
<g>
</g>
<g>
</g>
<g>
</g>
</svg>
