
<svg width="90px" height="54px" viewBox="0 10 90 54" version="1.1" xmlns="http://www.w3.org/2000/svg" xmlns:xlink="http://www.w3.org/1999/xlink">
    <!-- Generator: Sketch 3.8.2 (29753) - http://www.bohemiancoding.com/sketch -->
    <desc>Created with Sketch.</desc>
    <defs></defs>
    <g id="laptop" stroke="none" stroke-width="1" fill="none" fill-rule="evenodd" transform="translate(0.000000, 10.000000)">
        <g id="Group" fill="#F3F3F3">
            <path d="M53.316,52.1334 L36.6876,52.1334 L36.6876,49.9752 L0,49.9752 C0,53.0514 1.7892,53.8488 3.987,53.8488 L81.7165493,53.8488 L86.0112,53.8488 C88.209,53.8488 89.9982,53.0514 89.9982,49.9752 L53.316,49.9752 L53.316,52.1334 Z" id="Shape"></path>
            <path d="M77.211,0.1494 L12.7908,0.1494 C9.783,0.1494 7.335,2.5974 7.335,5.6052 L7.335,43.0074 C7.335,46.0134 9.783,48.4632 12.7908,48.4632 L77.2074,48.4632 C80.217,48.4632 82.6632,46.0134 82.6632,43.0074 L82.6632,5.607 C82.6632,2.5956 80.2152,0.1494 77.211,0.1494 L77.211,0.1494 Z M51.6564,35.3574 L49.2354,36.7524 L44.1072,27.8712 L40.8492,32.1462 L38.142,14.742 L51.8634,25.7904 L46.53,26.4744 L51.6564,35.3574 L51.6564,35.3574 Z" id="Shape"></path>
        </g>
    </g>
</svg>